<?xml version="1.0" encoding="utf-8"?>
<?xml-stylesheet type="text/xsl" href="rss1.xsl"?>
<rss version="2.0" xmlns:atom="http://www.w3.org/2005/Atom" xmlns:content="http://purl.org/rss/1.0/modules/content/" xmlns:dc="http://purl.org/dc/elements/1.1/" xmlns:media="http://search.yahoo.com/mrss/">
<channel>
 <title>Getty</title>
 <link>http://www.gettyimg.com/</link>
 <atom:link href="http://www.gettyimg.com/" rel="self" type="application/rss+xml" />

 
                <item>
                <title><![CDATA[【YOUTUBE】WEB-RiP - [SOFT SUB] (G)I-DLE - Queencard [THE FIRST TAKE] (YouTube VP9 4K 2160p)]]></title>
                <link><![CDATA[https://sharemania.us/threads/soft-sub-g-i-dle-queencard-the-first-take-youtube-vp9-4k-2160p.228580/]]></link>
                <description><![CDATA[<article>
<blockquote class="messageText SelectQuoteContainer ugc baseHtml">
<div style="text-align: center"><img src="https://i.imgur.com/NpFnOb3.gif" class="bbCodeImage LbImage" alt="[​IMG]" data-url="https://i.imgur.com/NpFnOb3.gif" style=""> <br>
<br>
2160p <span style="color: rgb(0, 179, 89)">VP9</span> YouTube Rip<br>
by: <span style="color: rgb(166, 77, 255)">stargamer<br>
</span><br>
<div class="ToggleTriggerAnchor bbCodeSpoilerContainer">
<button type="button" class="button bbCodeSpoilerButton ToggleTrigger Tooltip JsOnly" data-target="> .SpoilerTarget"><span>Spoiler: <span class="SpoilerTitle">metadata</span></span></button>
<div class="SpoilerTarget bbCodeSpoilerText">General<br>
Format : MPEG-4<br>
Format profile : Base Media<br>
Codec ID : isom (isom/iso2/mp41)<br>
File size : 305 MiB<br>
Duration : 3 min 21 s<br>
Overall bit rate mode : Variable<br>
Overall bit rate : 12.7 Mb/s<br>
Writing application : Ripped by STARGAMER<br>
<br>
Video<br>
ID : 1<br>
Format : vp09<br>
Codec ID : vp09<br>
Duration : 3 min 21 s<br>
Bit rate : 12.6 Mb/s<br>
Width : 3 840 pixels<br>
Height : 2 160 pixels<br>
Display aspect ratio : 16:9<br>
Frame rate mode : Variable<br>
Frame rate : 29.970 FPS<br>
Minimum frame rate : 29.412 FPS<br>
Maximum frame rate : 30.303 FPS<br>
Color space : YUV<br>
Bits/(Pixel*Frame) : 0.051<br>
Stream size : 302 MiB (99%)<br>
Language : English<br>
Color range : Limited<br>
Color primaries : BT.709<br>
Transfer characteristics : BT.709<br>
Matrix coefficients : BT.709<br>
<br>
Audio<br>
ID : 2<br>
Format : Opus<br>
Codec ID : Opus<br>
Duration : 3 min 21 s<br>
Duration_FirstFrame : 1 ms<br>
Bit rate mode : Variable<br>
Bit rate : 119 kb/s<br>
Sampling rate : 48.0 kHz<br>
Compression mode : Lossy<br>
Stream size : 2.86 MiB (1%)<br>
Language : English<br>
Default : Yes<br>
Alternate group : 1<br>
<br>
Text #1<br>
ID : 3<br>
Format : Timed Text<br>
Muxing mode : sbtl<br>
Codec ID : tx3g<br>
Duration : 2 min 59 s<br>
Bit rate mode : Variable<br>
Bit rate : 72 b/s<br>
Frame rate : 0.391 FPS<br>
Stream size : 1.58 KiB (0%)<br>
Language : English<br>
Default : Yes<br>
Forced : No<br>
Alternate group : 3<br>
<br>
Text #2<br>
ID : 4<br>
Format : Timed Text<br>
Muxing mode : sbtl<br>
Codec ID : tx3g<br>
Duration : 2 min 59 s<br>
Bit rate mode : Variable<br>
Bit rate : 72 b/s<br>
Frame rate : 0.391 FPS<br>
Stream size : 1.58 KiB (0%)<br>
Language : Korean<br>
Default : No<br>
Forced : No<br>
Alternate group : 3</div>
</div><br>
<span style="font-size: 18px"><span style="color: #000000">Download:</span></span><br>
<span style="font-size: 18px"><span style="color: #000000"><br>
<div class="bbCodeBlock bbCodeVfcHH HiddenContent">
<div class="attribution type">Hidden Content:</div>
<blockquote>You must either reply or click 'Like' to see the hidden information contained here.</blockquote>
</div></span></span>​</div>
<div class="messageTextEndMarker">&nbsp;</div>
</blockquote>
</article>]]></description>
                <author><![CDATA[stargamer]]></author>
                </item>

                </channel></rss>